<svg xmlns="http://www.w3.org/2000/svg" viewBox="0 0 48 48" width="48px" height="48px">
  <path 
    fill="white" 
    stroke="black" 
    stroke-width="2" 
    d="M4.662,6.941c-0.001,0-0.003,0-0.004,0c-1.42,0-2.179,1.675-1.241,2.743L16,24L30.869,7.159c-0.241-0.101-0.501-0.16-0.768-0.161L4.662,6.941z"/>
  
  <path 
    fill="white" 
    stroke="black" 
    stroke-width="2" 
    d="M38.056,14.996l-6.46-7.322c-0.202-0.229-0.452-0.401-0.727-0.516L16,24L3.457,38.215c-0.951,1.078-0.192,2.769,1.24,2.782l10.785-0.007L38.056,14.996z"/>
  
  <path 
    fill="white" 
    stroke="black" 
    stroke-width="2" 
    d="M44.217,21.982l-6.161-6.985L15.482,41l14.796-0.01c0.506-0.046,0.98-0.273,1.319-0.658l12.62-14.308C45.236,24.87,45.236,23.137,44.217,21.982z"/>
  
  <path 
    fill="white" 
    stroke="black" 
    stroke-width="2" 
    d="M16,24L30.869,7.159c-0.241-0.101-0.501-0.16-0.768-0.161l-0.423-0.001L15.336,23.245L16,24z" 
    opacity=".05"/>
  
  <path 
    fill="white" 
    stroke="black" 
    stroke-width="2" 
    d="M15.669,23.624L16,24L30.869,7.159c-0.173-0.073-0.358-0.114-0.546-0.137L15.669,23.624z" 
    opacity=".07"/>
</svg>
